ffmpeg started on 2025-06-05 at 19:16:52
Report written to "D:\Convert\FFMetrics\reports\ssim_report-6.txt"
Log level: 32
Command line:
ffmpeg -hide_banner -nostdin -i "G:\\\xc0\xed\xe8\xec\xe5\\\xce\xed\xe3\xee\xe8\xed\xe3\xe8\\!_36_\xce\xf1\xe5\xed\xfc_2024\\DreamCast\\\xca\xee\xec\xef\xe0\xed\xe8\xff \xab\xcc\xe0\xe3\xe8-\xcb\xfe\xec\xfc\xe5\xf0\xbb\\[DC] Kabushikigaisha Magilumiere - 08_Telegram_HEVC.mkv" -i "G:\\\xc0\xed\xe8\xec\xe5\\\xce\xed\xe3\xee\xe8\xed\xe3\xe8\\!_36_\xce\xf1\xe5\xed\xfc_2024\\DreamCast\\\xca\xee\xec\xef\xe0\xed\xe8\xff \xab\xcc\xe0\xe3\xe8-\xcb\xfe\xec\xfc\xe5\xf0\xbb\\[DC] Kabushikigaisha Magilumiere - 08_Telegram.mp4" -lavfi "[0:v]settb=AVTB,setpts=PTS-STARTPTS,format=pix_fmts=yuv420p10,fps=24000/1001,scale=1920:1080:flags=bicubic[main];[1:v]settb=AVTB,setpts=PTS-STARTPTS,format=pix_fmts=yuv420p,fps=24000/1001,scale=1920:1080:flags=bicubic[ref];[main][ref]ssim=eof_action=endall:stats_file='D\\:/Convert/FFMetrics/logs/ssim_logfile-6.txt'" -f null -
Input #0, matroska,webm, from 'G:\Аниме\Онгоинги\!_36_Осень_2024\DreamCast\Компания «Маги-Люмьер»\[DC] Kabushikigaisha Magilumiere - 08_Telegram_HEVC.mkv':
  Metadata:
    COMPATIBLE_BRANDS: isomiso2avc1mp41
    MAJOR_BRAND     : isom
    MINOR_VERSION   : 512
    ENCODER         : Lavf61.7.100
  Duration: 00:24:06.61, start: -0.021000, bitrate: 1699 kb/s
  Stream #0:0: Video: hevc (Main 10), yuv420p10le(tv, bt709, progressive), 1920x1080 [SAR 1:1 DAR 16:9], 23.98 fps, 23.98 tbr, 1k tbn (default)
      Metadata:
        HANDLER_NAME    : VideoHandler
        VENDOR_ID       : [0][0][0][0]
        ENCODER         : Lavc61.19.100 libx265
        BPS             : 1501047
        DURATION        : 00:24:06.528708333
        NUMBER_OF_FRAMES: 34682
        NUMBER_OF_BYTES : 271413369
        _STATISTICS_WRITING_APP: mkvpropedit v66.0.0 ('Josie') 64-bit
        _STATISTICS_WRITING_DATE_UTC: 2025-05-30 18:36:21
        _STATISTICS_TAGS: BPS DURATION NUMBER_OF_FRAMES NUMBER_OF_BYTES
  Stream #0:1: Audio: aac (LC), 48000 Hz, stereo, fltp (default)
      Metadata:
        HANDLER_NAME    : SoundHandler
        VENDOR_ID       : [0][0][0][0]
        ENCODER         : Lavc61.19.100 aac
        BPS             : 194433
        DURATION        : 00:24:06.613000000
        NUMBER_OF_FRAMES: 67811
        NUMBER_OF_BYTES : 35158821
        _STATISTICS_WRITING_APP: mkvpropedit v66.0.0 ('Josie') 64-bit
        _STATISTICS_WRITING_DATE_UTC: 2025-05-30 18:36:21
        _STATISTICS_TAGS: BPS DURATION NUMBER_OF_FRAMES NUMBER_OF_BYTES
Input #1, mov,mp4,m4a,3gp,3g2,mj2, from 'G:\Аниме\Онгоинги\!_36_Осень_2024\DreamCast\Компания «Маги-Люмьер»\[DC] Kabushikigaisha Magilumiere - 08_Telegram.mp4':
  Metadata:
    major_brand     : isom
    minor_version   : 512
    compatible_brands: isomiso2avc1mp41
    encoder         : Lavf61.1.100
  Duration: 00:24:06.59, start: 0.000000, bitrate: 3748 kb/s
  Stream #1:0[0x1](und): Video: h264 (High) (avc1 / 0x31637661), yuv420p(tv, bt709, progressive), 1920x1080 [SAR 1:1 DAR 16:9], 3600 kb/s, 23.98 fps, 23.98 tbr, 24k tbn (default)
      Metadata:
        handler_name    : VideoHandler
        vendor_id       : [0][0][0][0]
        encoder         : Lavc61.3.100 h264_qsv
  Stream #1:1[0x2](und): Audio: aac (HE-AACv2) (mp4a / 0x6134706D), 48000 Hz, stereo, fltp, 144 kb/s (default)
      Metadata:
        handler_name    : SoundHandler
        vendor_id       : [0][0][0][0]
Stream mapping:
  Stream #0:0 (hevc) -> settb:default
  Stream #1:0 (h264) -> settb:default
  ssim:default -> Stream #0:0 (wrapped_avframe)
  Stream #0:1 -> #0:1 (aac (native) -> pcm_s16le (native))
Output #0, null, to 'pipe:':
  Metadata:
    COMPATIBLE_BRANDS: isomiso2avc1mp41
    MAJOR_BRAND     : isom
    MINOR_VERSION   : 512
    encoder         : Lavf61.7.100
  Stream #0:0: Video: wrapped_avframe, yuv420p10le(tv, bt709, progressive), 1920x1080 [SAR 1:1 DAR 16:9], q=2-31, 200 kb/s, 23.98 fps, 23.98 tbn
      Metadata:
        encoder         : Lavc61.19.100 wrapped_avframe
  Stream #0:1: Audio: pcm_s16le, 48000 Hz, stereo, s16, 1536 kb/s (default)
      Metadata:
        HANDLER_NAME    : SoundHandler
        VENDOR_ID       : [0][0][0][0]
        _STATISTICS_TAGS: BPS DURATION NUMBER_OF_FRAMES NUMBER_OF_BYTES
        BPS             : 194433
        DURATION        : 00:24:06.613000000
        NUMBER_OF_FRAMES: 67811
        NUMBER_OF_BYTES : 35158821
        _STATISTICS_WRITING_APP: mkvpropedit v66.0.0 ('Josie') 64-bit
        _STATISTICS_WRITING_DATE_UTC: 2025-05-30 18:36:21
        encoder         : Lavc61.19.100 pcm_s16le
frame=  151 fps=0.0 q=-0.0 size=N/A time=00:00:06.29 bitrate=N/A speed=12.3x    frame=  382 fps=369 q=-0.0 size=N/A time=00:00:15.93 bitrate=N/A speed=15.4x    frame=  576 fps=373 q=-0.0 size=N/A time=00:00:24.02 bitrate=N/A speed=15.6x    frame=  772 fps=374 q=-0.0 size=N/A time=00:00:32.19 bitrate=N/A speed=15.6x    frame=  978 fps=380 q=-0.0 size=N/A time=00:00:40.79 bitrate=N/A speed=15.9x    frame= 1145 fps=370 q=-0.0 size=N/A time=00:00:47.75 bitrate=N/A speed=15.4x    frame= 1332 fps=368 q=-0.0 size=N/A time=00:00:55.55 bitrate=N/A speed=15.4x    frame= 1477 fps=358 q=-0.0 size=N/A time=00:01:01.60 bitrate=N/A speed=14.9x    frame= 1670 fps=360 q=-0.0 size=N/A time=00:01:09.65 bitrate=N/A speed=  15x    frame= 1882 fps=365 q=-0.0 size=N/A time=00:01:18.49 bitrate=N/A speed=15.2x    frame= 2084 fps=367 q=-0.0 size=N/A time=00:01:26.92 bitrate=N/A speed=15.3x    frame= 2294 fps=370 q=-0.0 size=N/A time=00:01:35.67 bitrate=N/A speed=15.4x    frame= 2444 fps=365 q=-0.0 size=N/A time=00:01:41.93 bitrate=N/A speed=15.2x    frame= 2588 fps=358 q=-0.0 size=N/A time=00:01:47.94 bitrate=N/A speed=14.9x    frame= 2765 fps=358 q=-0.0 size=N/A time=00:01:55.32 bitrate=N/A speed=14.9x    frame= 2977 fps=361 q=-0.0 size=N/A time=00:02:04.16 bitrate=N/A speed=  15x    frame= 3173 fps=362 q=-0.0 size=N/A time=00:02:12.34 bitrate=N/A speed=15.1x    frame= 3380 fps=364 q=-0.0 size=N/A time=00:02:20.97 bitrate=N/A speed=15.2x    frame= 3627 fps=370 q=-0.0 size=N/A time=00:02:31.27 bitrate=N/A speed=15.4x    frame= 3900 fps=378 q=-0.0 size=N/A time=00:02:42.66 bitrate=N/A speed=15.8x    frame= 4109 fps=380 q=-0.0 size=N/A time=00:02:51.37 bitrate=N/A speed=15.8x    frame= 4308 fps=380 q=-0.0 size=N/A time=00:02:59.67 bitrate=N/A speed=15.8x    frame= 4505 fps=380 q=-0.0 size=N/A time=00:03:07.89 bitrate=N/A speed=15.9x    frame= 4704 fps=380 q=-0.0 size=N/A time=00:03:16.19 bitrate=N/A speed=15.9x    frame= 4902 fps=380 q=-0.0 size=N/A time=00:03:24.45 bitrate=N/A speed=15.9x    frame= 5086 fps=380 q=-0.0 size=N/A time=00:03:32.12 bitrate=N/A speed=15.8x    frame= 5315 fps=382 q=-0.0 size=N/A time=00:03:41.67 bitrate=N/A speed=15.9x    frame= 5499 fps=381 q=-0.0 size=N/A time=00:03:49.35 bitrate=N/A speed=15.9x    frame= 5676 fps=380 q=-0.0 size=N/A time=00:03:56.73 bitrate=N/A speed=15.8x    frame= 5896 fps=381 q=-0.0 size=N/A time=00:04:05.91 bitrate=N/A speed=15.9x    frame= 6061 fps=379 q=-0.0 size=N/A time=00:04:12.79 bitrate=N/A speed=15.8x    frame= 6285 fps=381 q=-0.0 size=N/A time=00:04:22.13 bitrate=N/A speed=15.9x    frame= 6465 fps=380 q=-0.0 size=N/A time=00:04:29.64 bitrate=N/A speed=15.8x    frame= 6712 fps=383 q=-0.0 size=N/A time=00:04:39.94 bitrate=N/A speed=  16x    frame= 6968 fps=386 q=-0.0 size=N/A time=00:04:50.62 bitrate=N/A speed=16.1x    frame= 7179 fps=387 q=-0.0 size=N/A time=00:04:59.42 bitrate=N/A speed=16.1x    frame= 7377 fps=387 q=-0.0 size=N/A time=00:05:07.68 bitrate=N/A speed=16.1x    frame= 7608 fps=388 q=-0.0 size=N/A time=00:05:17.31 bitrate=N/A speed=16.2x    frame= 7862 fps=391 q=-0.0 size=N/A time=00:05:27.91 bitrate=N/A speed=16.3x    frame= 8120 fps=394 q=-0.0 size=N/A time=00:05:38.67 bitrate=N/A speed=16.4x    frame= 8351 fps=395 q=-0.0 size=N/A time=00:05:48.30 bitrate=N/A speed=16.5x    frame= 8580 fps=396 q=-0.0 size=N/A time=00:05:57.85 bitrate=N/A speed=16.5x    frame= 8806 fps=397 q=-0.0 size=N/A time=00:06:07.28 bitrate=N/A speed=16.6x    frame= 9054 fps=399 q=-0.0 size=N/A time=00:06:17.62 bitrate=N/A speed=16.6x    frame= 9319 fps=402 q=-0.0 size=N/A time=00:06:28.67 bitrate=N/A speed=16.8x    frame= 9572 fps=403 q=-0.0 size=N/A time=00:06:39.23 bitrate=N/A speed=16.8x    frame= 9762 fps=403 q=-0.0 size=N/A time=00:06:47.15 bitrate=N/A speed=16.8x    frame= 9951 fps=402 q=-0.0 size=N/A time=00:06:55.03 bitrate=N/A speed=16.8x    frame=10152 fps=402 q=-0.0 size=N/A time=00:07:03.42 bitrate=N/A speed=16.8x    frame=10394 fps=403 q=-0.0 size=N/A time=00:07:13.51 bitrate=N/A speed=16.8x    frame=10663 fps=405 q=-0.0 size=N/A time=00:07:24.73 bitrate=N/A speed=16.9x    frame=10915 fps=407 q=-0.0 size=N/A time=00:07:35.24 bitrate=N/A speed=  17x    frame=11127 fps=407 q=-0.0 size=N/A time=00:07:44.08 bitrate=N/A speed=  17x    frame=11323 fps=407 q=-0.0 size=N/A time=00:07:52.26 bitrate=N/A speed=  17x    frame=11555 fps=408 q=-0.0 size=N/A time=00:08:01.93 bitrate=N/A speed=  17x    frame=11803 fps=409 q=-0.0 size=N/A time=00:08:12.28 bitrate=N/A speed=  17x    frame=12058 fps=410 q=-0.0 size=N/A time=00:08:22.91 bitrate=N/A speed=17.1x    frame=12275 fps=410 q=-0.0 size=N/A time=00:08:31.96 bitrate=N/A speed=17.1x    frame=12495 fps=411 q=-0.0 size=N/A time=00:08:41.14 bitrate=N/A speed=17.1x    frame=12741 fps=412 q=-0.0 size=N/A time=00:08:51.40 bitrate=N/A speed=17.2x    frame=12965 fps=412 q=-0.0 size=N/A time=00:09:00.74 bitrate=N/A speed=17.2x    frame=13190 fps=413 q=-0.0 size=N/A time=00:09:10.13 bitrate=N/A speed=17.2x    frame=13450 fps=414 q=-0.0 size=N/A time=00:09:20.97 bitrate=N/A speed=17.3x    frame=13686 fps=415 q=-0.0 size=N/A time=00:09:30.82 bitrate=N/A speed=17.3x    frame=13894 fps=415 q=-0.0 size=N/A time=00:09:39.49 bitrate=N/A speed=17.3x    frame=14157 fps=416 q=-0.0 size=N/A time=00:09:50.46 bitrate=N/A speed=17.3x    frame=14395 fps=417 q=-0.0 size=N/A time=00:10:00.39 bitrate=N/A speed=17.4x    frame=14650 fps=418 q=-0.0 size=N/A time=00:10:11.02 bitrate=N/A speed=17.4x    frame=14895 fps=419 q=-0.0 size=N/A time=00:10:21.24 bitrate=N/A speed=17.5x    frame=15172 fps=420 q=-0.0 size=N/A time=00:10:32.79 bitrate=N/A speed=17.5x    frame=15404 fps=421 q=-0.0 size=N/A time=00:10:42.47 bitrate=N/A speed=17.6x    frame=15654 fps=422 q=-0.0 size=N/A time=00:10:52.90 bitrate=N/A speed=17.6x    frame=15908 fps=423 q=-0.0 size=N/A time=00:11:03.49 bitrate=N/A speed=17.6x    frame=16138 fps=423 q=-0.0 size=N/A time=00:11:13.08 bitrate=N/A speed=17.6x    frame=16382 fps=424 q=-0.0 size=N/A time=00:11:23.26 bitrate=N/A speed=17.7x    frame=16587 fps=423 q=-0.0 size=N/A time=00:11:31.81 bitrate=N/A speed=17.7x    frame=16771 fps=422 q=-0.0 size=N/A time=00:11:39.49 bitrate=N/A speed=17.6x    frame=16999 fps=423 q=-0.0 size=N/A time=00:11:48.99 bitrate=N/A speed=17.6x    frame=17191 fps=422 q=-0.0 size=N/A time=00:11:57.00 bitrate=N/A speed=17.6x    frame=17396 fps=422 q=-0.0 size=N/A time=00:12:05.55 bitrate=N/A speed=17.6x    frame=17619 fps=422 q=-0.0 size=N/A time=00:12:14.85 bitrate=N/A speed=17.6x    frame=17802 fps=421 q=-0.0 size=N/A time=00:12:22.49 bitrate=N/A speed=17.6x    frame=18059 fps=422 q=-0.0 size=N/A time=00:12:33.21 bitrate=N/A speed=17.6x    frame=18313 fps=423 q=-0.0 size=N/A time=00:12:43.80 bitrate=N/A speed=17.6x    frame=18478 fps=422 q=-0.0 size=N/A time=00:12:50.68 bitrate=N/A speed=17.6x    frame=18680 fps=421 q=-0.0 size=N/A time=00:12:59.11 bitrate=N/A speed=17.6x    frame=18917 fps=422 q=-0.0 size=N/A time=00:13:08.99 bitrate=N/A speed=17.6x    frame=19114 fps=421 q=-0.0 size=N/A time=00:13:17.21 bitrate=N/A speed=17.6x    frame=19372 fps=422 q=-0.0 size=N/A time=00:13:27.97 bitrate=N/A speed=17.6x    frame=19607 fps=422 q=-0.0 size=N/A time=00:13:37.77 bitrate=N/A speed=17.6x    frame=19847 fps=423 q=-0.0 size=N/A time=00:13:47.78 bitrate=N/A speed=17.6x    frame=20098 fps=424 q=-0.0 size=N/A time=00:13:58.25 bitrate=N/A speed=17.7x    frame=20310 fps=424 q=-0.0 size=N/A time=00:14:07.09 bitrate=N/A speed=17.7x    frame=20544 fps=424 q=-0.0 size=N/A time=00:14:16.85 bitrate=N/A speed=17.7x    frame=20796 fps=425 q=-0.0 size=N/A time=00:14:27.36 bitrate=N/A speed=17.7x    frame=21025 fps=425 q=-0.0 size=N/A time=00:14:36.91 bitrate=N/A speed=17.7x    frame=21227 fps=424 q=-0.0 size=N/A time=00:14:45.34 bitrate=N/A speed=17.7x    frame=21474 fps=425 q=-0.0 size=N/A time=00:14:55.64 bitrate=N/A speed=17.7x    frame=21713 fps=425 q=-0.0 size=N/A time=00:15:05.61 bitrate=N/A speed=17.7x    frame=21966 fps=426 q=-0.0 size=N/A time=00:15:16.16 bitrate=N/A speed=17.8x    frame=22233 fps=427 q=-0.0 size=N/A time=00:15:27.30 bitrate=N/A speed=17.8x    frame=22440 fps=427 q=-0.0 size=N/A time=00:15:35.93 bitrate=N/A speed=17.8x    frame=22656 fps=427 q=-0.0 size=N/A time=00:15:44.94 bitrate=N/A speed=17.8x    frame=22828 fps=426 q=-0.0 size=N/A time=00:15:52.11 bitrate=N/A speed=17.8x    frame=23064 fps=426 q=-0.0 size=N/A time=00:16:01.96 bitrate=N/A speed=17.8x    frame=23300 fps=426 q=-0.0 size=N/A time=00:16:11.80 bitrate=N/A speed=17.8x    frame=23560 fps=427 q=-0.0 size=N/A time=00:16:22.64 bitrate=N/A speed=17.8x    frame=23812 fps=428 q=-0.0 size=N/A time=00:16:33.15 bitrate=N/A speed=17.8x    frame=24051 fps=428 q=-0.0 size=N/A time=00:16:43.12 bitrate=N/A speed=17.8x    frame=24268 fps=428 q=-0.0 size=N/A time=00:16:52.17 bitrate=N/A speed=17.8x    frame=24538 fps=429 q=-0.0 size=N/A time=00:17:03.43 bitrate=N/A speed=17.9x    frame=24799 fps=429 q=-0.0 size=N/A time=00:17:14.32 bitrate=N/A speed=17.9x    frame=25063 fps=430 q=-0.0 size=N/A time=00:17:25.33 bitrate=N/A speed=17.9x    frame=25266 fps=430 q=-0.0 size=N/A time=00:17:33.80 bitrate=N/A speed=17.9x    frame=25489 fps=430 q=-0.0 size=N/A time=00:17:43.10 bitrate=N/A speed=17.9x    frame=25739 fps=430 q=-0.0 size=N/A time=00:17:53.53 bitrate=N/A speed=17.9x    frame=25973 fps=431 q=-0.0 size=N/A time=00:18:03.29 bitrate=N/A speed=  18x    frame=26195 fps=431 q=-0.0 size=N/A time=00:18:12.54 bitrate=N/A speed=  18x    frame=26478 fps=431 q=-0.0 size=N/A time=00:18:24.35 bitrate=N/A speed=  18x    frame=26660 fps=431 q=-0.0 size=N/A time=00:18:31.94 bitrate=N/A speed=  18x    frame=26884 fps=431 q=-0.0 size=N/A time=00:18:41.28 bitrate=N/A speed=  18x    frame=27076 fps=430 q=-0.0 size=N/A time=00:18:49.29 bitrate=N/A speed=  18x    frame=27309 fps=431 q=-0.0 size=N/A time=00:18:59.01 bitrate=N/A speed=  18x    frame=27486 fps=430 q=-0.0 size=N/A time=00:19:06.39 bitrate=N/A speed=17.9x    frame=27693 fps=430 q=-0.0 size=N/A time=00:19:15.02 bitrate=N/A speed=17.9x    frame=27884 fps=429 q=-0.0 size=N/A time=00:19:22.99 bitrate=N/A speed=17.9x    frame=28117 fps=429 q=-0.0 size=N/A time=00:19:32.71 bitrate=N/A speed=17.9x    frame=28350 fps=430 q=-0.0 size=N/A time=00:19:42.43 bitrate=N/A speed=17.9x    frame=28575 fps=430 q=-0.0 size=N/A time=00:19:51.81 bitrate=N/A speed=17.9x    frame=28822 fps=430 q=-0.0 size=N/A time=00:20:02.11 bitrate=N/A speed=17.9x    frame=29037 fps=430 q=-0.0 size=N/A time=00:20:11.08 bitrate=N/A speed=17.9x    frame=29230 fps=429 q=-0.0 size=N/A time=00:20:19.13 bitrate=N/A speed=17.9x    frame=29444 fps=429 q=-0.0 size=N/A time=00:20:28.06 bitrate=N/A speed=17.9x    frame=29697 fps=430 q=-0.0 size=N/A time=00:20:38.61 bitrate=N/A speed=17.9x    frame=29883 fps=429 q=-0.0 size=N/A time=00:20:46.37 bitrate=N/A speed=17.9x    frame=30126 fps=430 q=-0.0 size=N/A time=00:20:56.50 bitrate=N/A speed=17.9x    frame=30349 fps=430 q=-0.0 size=N/A time=00:21:05.80 bitrate=N/A speed=17.9x    frame=30594 fps=430 q=-0.0 size=N/A time=00:21:16.02 bitrate=N/A speed=17.9x    frame=30848 fps=430 q=-0.0 size=N/A time=00:21:26.61 bitrate=N/A speed=17.9x    frame=31065 fps=430 q=-0.0 size=N/A time=00:21:35.66 bitrate=N/A speed=17.9x    frame=31239 fps=430 q=-0.0 size=N/A time=00:21:42.92 bitrate=N/A speed=17.9x    frame=31453 fps=429 q=-0.0 size=N/A time=00:21:51.85 bitrate=N/A speed=17.9x    frame=31693 fps=430 q=-0.0 size=N/A time=00:22:01.86 bitrate=N/A speed=17.9x    frame=31938 fps=430 q=-0.0 size=N/A time=00:22:12.08 bitrate=N/A speed=17.9x    frame=32160 fps=430 q=-0.0 size=N/A time=00:22:21.34 bitrate=N/A speed=17.9x    frame=32415 fps=430 q=-0.0 size=N/A time=00:22:31.97 bitrate=N/A speed=17.9x    frame=32647 fps=431 q=-0.0 size=N/A time=00:22:41.65 bitrate=N/A speed=  18x    frame=32859 fps=430 q=-0.0 size=N/A time=00:22:50.49 bitrate=N/A speed=17.9x    frame=33088 fps=430 q=-0.0 size=N/A time=00:23:00.04 bitrate=N/A speed=  18x    frame=33283 fps=430 q=-0.0 size=N/A time=00:23:08.17 bitrate=N/A speed=17.9x    frame=33438 fps=429 q=-0.0 size=N/A time=00:23:14.64 bitrate=N/A speed=17.9x    frame=33589 fps=428 q=-0.0 size=N/A time=00:23:20.94 bitrate=N/A speed=17.9x    frame=33813 fps=428 q=-0.0 size=N/A time=00:23:30.28 bitrate=N/A speed=17.9x    frame=34014 fps=428 q=-0.0 size=N/A time=00:23:38.66 bitrate=N/A speed=17.9x    frame=34125 fps=427 q=-0.0 size=N/A time=00:23:43.29 bitrate=N/A speed=17.8x    frame=34247 fps=426 q=-0.0 size=N/A time=00:23:48.38 bitrate=N/A speed=17.8x    frame=34437 fps=425 q=-0.0 size=N/A time=00:23:56.30 bitrate=N/A speed=17.7x    frame=34644 fps=425 q=-0.0 size=N/A time=00:24:04.94 bitrate=N/A speed=17.7x    [Parsed_ssim_10 @ 0000023a5a3089c0] SSIM Y:0.993944 (22.178371) U:0.993831 (22.097534) V:0.993930 (22.168217) All:0.993923 (22.163104)
[out#0/null @ 0000023a579d4780] video:14902KiB audio:271244KiB subtitle:0KiB other streams:0KiB global headers:0KiB muxing overhead: unknown
frame=34682 fps=425 q=-0.0 Lsize=N/A time=00:24:06.52 bitrate=N/A speed=17.7x    
